<?xml version="1.0" encoding="UTF-8"?>
<!DOCTYPE svg PUBLIC "-//W3C//DTD SVG 1.1//EN" "http://www.w3.org/Graphics/SVG/1.1/DTD/svg11.dtd">
<!-- Creator: CorelDRAW -->
<svg xmlns="http://www.w3.org/2000/svg" xml:space="preserve" width="5.91667in" height="5.91667in" version="1.1" style="shape-rendering:geometricPrecision; text-rendering:geometricPrecision; image-rendering:optimizeQuality; fill-rule:evenodd; clip-rule:evenodd"
viewBox="0 0 5916.25 5916.25"
 xmlns:xlink="http://www.w3.org/1999/xlink"
 xmlns:xodm="http://www.corel.com/coreldraw/odm/2003">
 <defs>
  <style type="text/css">
   <![CDATA[
    .fil1 {fill:#FEFEFE}
    .fil0 {fill:url(#id1)}
    .fil3 {fill:url(#id2)}
    .fil2 {fill:url(#id3)}
   ]]>
  </style>
     <clipPath id="id0">
      <path d="M994.04 1399.3l3647.36 0 0 3693.49 -3647.36 0 0 -3693.49z"/>
     </clipPath>
  <linearGradient id="id1" gradientUnits="userSpaceOnUse" x1="1180.61" y1="1200.04" x2="6630.23" y2="6699.66">
   <stop offset="0" style="stop-opacity:1; stop-color:#85E31C"/>
   <stop offset="0.368627" style="stop-opacity:1; stop-color:#2CC02B"/>
   <stop offset="1" style="stop-opacity:1; stop-color:#298822"/>
  </linearGradient>
  <linearGradient id="id2" gradientUnits="userSpaceOnUse" x1="2724.33" y1="2185.41" x2="4540.87" y2="4135.27">
   <stop offset="0" style="stop-opacity:1; stop-color:#C6C6C6"/>
   <stop offset="0.670588" style="stop-opacity:1; stop-color:#E2E2E2"/>
   <stop offset="1" style="stop-opacity:1; stop-color:#FEFEFE"/>
  </linearGradient>
  <linearGradient id="id3" gradientUnits="userSpaceOnUse" x1="1788.04" y1="1303.39" x2="2539.86" y2="2049.65">
   <stop offset="0" style="stop-opacity:1; stop-color:#C6C6C6"/>
   <stop offset="0.611765" style="stop-opacity:1; stop-color:#E2E2E2"/>
   <stop offset="1" style="stop-opacity:1; stop-color:#FEFEFE"/>
  </linearGradient>
 </defs>
 <g id="Camada_x0020_1">
  <metadata id="CorelCorpID_0Corel-Layer"/>
  <g id="_2094239496240">
   <path class="fil0" d="M1936.87 0l3979.38 0 0 3979.38c0,1065.28 -871.59,1936.87 -1936.87,1936.87l-2042.51 0c-1065.28,0 -1936.87,-871.59 -1936.87,-1936.87l0 -2042.51c0,-1065.28 871.59,-1936.87 1936.87,-1936.87z"/>
   <g>
    <g style="clip-path:url(#id0)">
     <image x="994.04" y="1399.3" width="3647.36" height="3693.49" xlink:href="corel-draw-2020-seeklogo-2_Images\corel-draw-2020-seeklogo-2_ImgID1.png"/>
    </g>
   </g>
   <g>
    <path class="fil1" d="M4460.66 4630.53c33.42,-34.28 95.74,-96.61 134.63,-133.76 38.89,-37.15 54.33,-49.13 68.48,-56.16 14.15,-7.03 27,-9.12 36.89,-7.38 9.9,1.74 16.84,7.29 21.7,13.88 4.86,6.6 7.64,14.24 10.24,27.6 2.6,13.37 5.04,32.46 8.85,59.54 3.82,27.08 9.03,62.15 13.02,92.88 4,30.73 6.77,57.11 6.42,74.99 -0.35,17.88 -3.82,27.26 -11.11,37.5 -7.29,10.24 -18.4,21.36 -28.65,29.34 -10.24,7.99 -19.61,12.85 -30.72,15.1 -11.11,2.26 -23.96,1.91 -39.24,0.69 -15.27,-1.21 -32.98,-3.3 -49.65,-5.73 -16.66,-2.43 -32.29,-5.2 -48.08,-7.81 -15.8,-2.6 -31.77,-5.04 -50,-7.81 -18.23,-2.78 -38.71,-5.9 -53.12,-8.85 -14.41,-2.95 -22.74,-5.73 -28.47,-10.42 -5.73,-4.69 -8.85,-11.28 -10.94,-18.23 -2.08,-6.94 -3.12,-14.24 -1.74,-22.4 1.39,-8.16 5.21,-17.19 9.38,-24.83 4.17,-7.64 8.68,-13.89 42.1,-48.17z"/>
    <path class="fil1" d="M1688.07 1226.76c123.78,-113.67 231.79,-127.47 334.45,-48.69 1622.11,1622.11 2438.38,2429.52 2438.38,2429.52 103.25,95.25 164.7,194.9 184.35,298.94 14,95.19 26.4,188.24 37.18,279.13 2.15,18.16 -3.67,29.47 -11.19,45.99 -24.18,53.07 -71.39,107.88 -141.61,164.42 -160.41,156.24 -240.61,234.35 -240.61,234.35 -47.36,53.28 -161,27.16 -242.62,10.71 -184.65,-37.21 -201.54,-7.34 -353.18,-150.28 -1619.35,-1619.34 -2429.02,-2429.01 -2429.02,-2429.01 -77.65,-69.67 -115.49,-123.14 -113.54,-160.42 -1.46,-18.93 -1.3,-36.67 0.48,-53.19 6.24,-57.98 48.7,-120 83.88,-166.17 26.01,-34.13 58.28,-69.6 96.82,-106.39 97.23,-100.69 215.97,-216.99 356.22,-348.92z"/>
    <path class="fil2" d="M1493.73 1418.84c-6.39,12.01 -6.53,23.7 -5.03,35.09 1.49,11.4 4.61,22.51 9.3,33.62 4.69,11.11 10.94,22.22 19.62,34.2 8.68,11.98 19.79,24.82 60.94,67.01 41.14,42.18 112.32,113.71 173.6,175.68 61.28,61.98 112.67,114.4 171.52,173.43 58.85,59.02 125.17,124.64 162.49,161.1 37.32,36.45 45.65,43.75 49.65,47.22 3.99,3.47 3.64,3.12 74.43,-68.53 70.79,-71.66 212.71,-214.62 283.76,-286.01 71.05,-71.4 71.22,-71.22 70.96,-71.48 -0.26,-0.26 -0.96,-0.96 -90.21,-90.16 -89.26,-89.2 -267.08,-266.91 -355.91,-355.68 -88.82,-88.77 -88.65,-88.6 -93.45,-92.32 -4.8,-3.73 -14.57,-11.37 -25.95,-18.57 -11.39,-7.2 -24.38,-13.96 -37.99,-19.35 -13.61,-5.39 -27.82,-9.39 -43.08,-11.61 -15.26,-2.23 -31.57,-2.67 -46.92,-1.36 -15.35,1.31 -29.74,4.39 -42.61,8.21 -12.87,3.82 -24.22,8.39 -39.02,16.19 -14.81,7.79 -33.08,18.83 -49.76,30.46 -16.68,11.63 -31.76,23.87 -45.56,35.86 -13.8,11.99 -26.32,23.74 -42.36,38.92 -16.04,15.18 -35.6,33.78 -57.32,54.58 -21.72,20.81 -45.58,43.81 -63.83,61.48 -18.25,17.67 -30.89,30.01 -37.27,42.02z"/>
    <path class="fil3" d="M4671.24 4231.66c-13.14,27.01 -27.68,50.01 -43.63,69 -88.46,-5.5 -160.06,-12.01 -214.79,-19.54 -102.45,-4.78 -221.89,-73.53 -358.32,-206.23l-1715.49 -1720.73 -389.17 393.33 -88.02 -88.01 820.65 -821.96 1832.28 1824.34c66.1,69.57 109.59,151.14 130.48,244.68 23.55,175.66 35.32,263.5 35.32,263.5 5.24,21.99 2.13,42.53 -9.33,61.62z"/>
   </g>
  </g>
 </g>
</svg>
